<svg id="Layer_1" data-name="Layer 1" xmlns="http://www.w3.org/2000/svg" viewBox="0 0 18 18">
  <defs>
    <style>
      .cls-1 {
        fill: #fff;
      }
    </style>
  </defs>
  <title>icon-white</title>
  <path class="cls-1" d="M15.47,12.65,9.1,9.29a4.74,4.74,0,0,1-.49-.37h0S8.4,8.46,9.09,8l4.57-2.36s.75-.32.75-1.59h0V1.33s0-.08-.11-.11L10.67.43a.46.46,0,0,0-.18,0l-3.24.82h0a.15.15,0,0,0-.11.16v3h0L4.2,5.29a3.37,3.37,0,0,0-2.31,3h0c0,3.33,1.22,4.35,1.22,4.35l4.8,4.7a.79.79,0,0,0,.5.21.41.41,0,0,0,.28-.1.66.66,0,0,1-.09.1l4.24-1.39,2.63-1s.64-.18.64-1.25A1.33,1.33,0,0,0,15.47,12.65Zm-4-10.09,2.64-.91V4.09s0,0,0,0h0L11.48,5.36ZM8.94,7c1.33-.73,4.21-2.08,5.16-2.52a1.2,1.2,0,0,1-.55,1h0L9,7.78h0a1.22,1.22,0,0,0-.64.81C7.92,8.11,7.89,7.54,8.94,7Zm-.29,9.78c0,.13,0,.55-.23.55a.51.51,0,0,1-.3-.14l-4.8-4.7h0A4.57,4.57,0,0,1,2.25,9.51a6,6,0,0,0,1.45,1.72l4.07,3.52.18.17H8A2.32,2.32,0,0,1,8.65,16.74Z"/>
</svg>
