<svg id="Layer_1" data-name="Layer 1" xmlns="http://www.w3.org/2000/svg" viewBox="0 0 160 70">
  <defs>
    <style>
      .cls-1 {
        fill: #4e4e4e;
      }

      .cls-2 {
        fill: #89d4ed;
      }
    </style>
  </defs>
  <title>logo</title>
  <path class="cls-1" d="M43.2,22.73s.63,2.78-1.3,4.12L30.08,32.67s-2.8,1.5-1.28,2.6l-3.44-2.49,4.88-5.17"/>
  <path class="cls-1" d="M15,44.16s-3.06-2.56-3.06-10.89l4.49,7.31v4.71"/>
  <path class="cls-1" d="M16.46,40.48l11.38,9.86a5.59,5.59,0,0,1,1.68,4c0,2.73-1.81,2.21-2.54,1.54L15,44.16Z"/>
  <path class="cls-2" d="M42.93,15.55l-9.08-2a1.15,1.15,0,0,0-.46,0l-8.1,2h0A.38.38,0,0,0,25,16v7.43L35.14,27l7.91-3.85a.76.76,0,0,0,.15-.46V15.82C43.2,15.76,43.17,15.6,42.93,15.55Z"/>
  <path class="cls-2" d="M29.46,54.48a5,5,0,0,0-1.68-4L16.41,40.58C8.1,33.41,13,27.75,17.68,25.72c0,0,14.55-4.56,15.95-4.74L43,23.2a.87.87,0,0,1-.24.22C41,24.27,33,28,29.52,29.9c-4,2.21-1.73,4.4.42,5.82l15.92,8.41a3.32,3.32,0,0,1,1.59,3.18c0,2.68-1.59,3.13-1.59,3.13L39.28,53l-10.6,3.48A2.81,2.81,0,0,0,29.46,54.48Z"/>
  <path class="cls-1" d="M43,15.68l-7.57,2.6c-.09,0-.27.18-.27.6V27l7.6-3.59a.8.8,0,0,0,.46-.72V15.85C43.2,15.61,43,15.68,43,15.68Z"/>
  <g>
    <g>
      <g>
        <path class="cls-1" d="M84.6,37.4c0,2.89-2.28,4.7-5.15,4.7s-5.17-1.81-5.17-4.7,2.34-4.72,5.17-4.72S84.6,34.57,84.6,37.4Zm-3.06,0c0-1.13-.49-2.34-2.09-2.34a2.06,2.06,0,0,0-2.11,2.34c0,1.15.45,2.36,2.11,2.36S81.54,38.57,81.54,37.42Z"/>
        <path class="cls-1" d="M95.81,41.92H92.73V36.79c0-1.07-.41-1.64-1.38-1.64a2,2,0,0,0-1.72,2.26v4.52H86.55V32.87h3.08V34a3.47,3.47,0,0,1,2.77-1.31c2.42,0,3.41,1.66,3.41,4.13Z"/>
        <path class="cls-1" d="M103.61,41.92H100l-3.45-9.05h3.1l2.16,5.83,2.16-5.83h3.12Z"/>
        <path class="cls-1" d="M120.33,46.47l2.05-5.13-.26.66-3.73-9.13h3.1l2.2,5.54,2.12-5.54h3.12l-3.42,8.47-2,5.13Z"/>
        <path class="cls-1" d="M139.76,37.4c0,2.89-2.28,4.7-5.15,4.7s-5.17-1.81-5.17-4.7,2.34-4.72,5.17-4.72S139.76,34.57,139.76,37.4Zm-3.06,0c0-1.13-.49-2.34-2.09-2.34a2.06,2.06,0,0,0-2.12,2.34c0,1.15.45,2.36,2.12,2.36S136.7,38.57,136.7,37.42Z"/>
        <path class="cls-1" d="M144.79,37.4v4.52h-3.08V32.87h3.08V34a2.87,2.87,0,0,1,2.38-1.31,2.41,2.41,0,0,1,.92.21v2.79h0a1.54,1.54,0,0,0-1.23-.51A2.24,2.24,0,0,0,144.79,37.4Z"/>
      </g>
      <path class="cls-1" d="M69.85,37.32a3.84,3.84,0,0,1-3.33,1.93,4.32,4.32,0,0,1,0-8.62,3.76,3.76,0,0,1,3.31,1.88L72.51,31a7.19,7.19,0,1,0,0,7.89l-.07,0Z"/>
    </g>
    <g>
      <g>
        <path class="cls-1" d="M84.6,37.4c0,2.89-2.28,4.7-5.15,4.7s-5.17-1.81-5.17-4.7,2.34-4.72,5.17-4.72S84.6,34.57,84.6,37.4Zm-3.06,0c0-1.13-.49-2.34-2.09-2.34a2.06,2.06,0,0,0-2.11,2.34c0,1.15.45,2.36,2.11,2.36S81.54,38.57,81.54,37.42Z"/>
        <path class="cls-1" d="M95.81,41.92H92.73V36.79c0-1.07-.41-1.64-1.38-1.64a2,2,0,0,0-1.72,2.26v4.52H86.55V32.87h3.08V34a3.47,3.47,0,0,1,2.77-1.31c2.42,0,3.41,1.66,3.41,4.13Z"/>
        <path class="cls-1" d="M103.61,41.92H100l-3.45-9.05h3.1l2.16,5.83,2.16-5.83h3.12Z"/>
        <path class="cls-1" d="M120.33,46.47l2.05-5.13-.26.66-3.73-9.13h3.1l2.2,5.54,2.12-5.54h3.12l-3.42,8.47-2,5.13Z"/>
        <path class="cls-1" d="M139.76,37.4c0,2.89-2.28,4.7-5.15,4.7s-5.17-1.81-5.17-4.7,2.34-4.72,5.17-4.72S139.76,34.57,139.76,37.4Zm-3.06,0c0-1.13-.49-2.34-2.09-2.34a2.06,2.06,0,0,0-2.12,2.34c0,1.15.45,2.36,2.12,2.36S136.7,38.57,136.7,37.42Z"/>
        <path class="cls-1" d="M144.79,37.4v4.52h-3.08V32.87h3.08V34a2.87,2.87,0,0,1,2.38-1.31,2.41,2.41,0,0,1,.92.21v2.79h0a1.54,1.54,0,0,0-1.23-.51A2.24,2.24,0,0,0,144.79,37.4Z"/>
      </g>
      <path class="cls-1" d="M69.85,37.32a3.84,3.84,0,0,1-3.33,1.93,4.32,4.32,0,0,1,0-8.62,3.76,3.76,0,0,1,3.31,1.88L72.51,31a7.19,7.19,0,1,0,0,7.89l-.07,0Z"/>
    </g>
    <path class="cls-1" d="M114.74,38.79a2.25,2.25,0,0,1-2,1.14,2.06,2.06,0,0,1-2-2.16h7c0-.18,0-.39,0-.58,0-2.89-2.28-4.54-5-4.54-3,0-5.28,1.91-5.28,4.74s2.16,4.72,5.28,4.72a4.83,4.83,0,0,0,4.22-2Zm-1.83-4.16a1.9,1.9,0,0,1,2,1.68h-4A1.87,1.87,0,0,1,112.91,34.63Z"/>
  </g>
</svg>
